<svg width="491" height="416" viewBox="0 0 491 416" fill="none" xmlns="http://www.w3.org/2000/svg">
<path d="M254.869 222.56C254.869 223.732 253.844 224.758 252.673 224.758C251.502 224.758 250.478 223.732 250.478 222.56C250.478 221.388 251.502 220.363 252.673 220.363C253.844 220.363 254.869 221.388 254.869 222.56Z" fill="url(#paint0_linear_1042_309)"/>
<path d="M226.175 187.835C226.175 189.008 225.151 190.033 223.98 190.033C222.809 190.033 221.784 189.008 221.784 187.835C221.784 186.663 222.809 185.638 223.98 185.638C225.151 185.638 226.175 186.663 226.175 187.835Z" fill="url(#paint1_linear_1042_309)"/>
<path d="M208.17 230.179C208.17 231.351 207.146 232.377 205.974 232.377C204.803 232.377 203.779 231.351 203.779 230.179C203.779 229.006 204.803 227.981 205.974 227.981C207.146 227.981 208.17 229.006 208.17 230.179Z" fill="url(#paint2_linear_1042_309)"/>
<path d="M49.6279 199.777C49.6279 199.63 50.7991 198.898 52.995 197.432C55.1908 195.967 58.5578 193.916 62.9496 191.279C71.5868 186.004 84.0301 178.532 99.255 169.301L99.6941 169.008L100.133 169.154C112.284 174.282 126.338 180.143 141.562 186.59L142.001 186.737L142.148 187.322C146.393 204.905 151.078 224.098 155.909 244.318L156.055 245.197L155.323 245.636C137.61 256.04 120.775 266.002 105.403 275.087L104.964 275.379L104.525 275.233C89.3002 268.64 75.2466 262.633 63.096 257.504L62.6569 257.358L62.5105 256.919C58.4114 239.337 55.0445 225.124 52.8486 215.161C51.6774 210.179 50.9455 206.37 50.3599 203.733C49.7743 201.242 49.6279 199.777 49.6279 199.777C49.7743 199.777 50.0671 201.095 50.7991 203.733C51.531 206.37 52.5558 210.179 53.7269 215.014C56.2156 224.831 59.729 239.043 64.1207 256.479C63.9743 256.332 63.828 256.04 63.6816 255.893C75.8322 261.021 89.8859 266.881 105.257 273.328C104.964 273.328 104.671 273.328 104.232 273.328C119.604 264.098 136.585 254.134 154.152 243.732C154.005 244.172 153.859 244.611 153.567 245.051C148.882 224.831 144.198 205.637 139.952 188.055C140.098 188.348 140.391 188.494 140.538 188.788C125.313 182.195 111.259 176.188 99.255 171.059C99.5477 171.059 99.8405 171.059 99.9869 171.059C84.7621 179.997 72.1723 187.176 63.3888 192.157C58.9971 194.648 55.63 196.553 53.2877 197.872C50.9455 199.19 49.6279 199.923 49.6279 199.777Z" fill="url(#paint3_linear_1042_309)"/>
<path d="M104.818 274.354C104.525 274.5 102.914 268.786 100.426 259.848C98.0835 250.765 94.8629 238.164 91.4959 224.245C90.9103 222.047 90.4711 219.703 89.8855 217.652C90.1783 217.945 90.3247 218.237 90.6175 218.384C78.9061 213.402 68.6587 208.86 61.339 205.491C54.0194 202.121 49.6277 200.07 49.7741 199.777C49.9204 199.483 54.4586 201.242 62.071 204.172C69.537 207.103 79.9309 211.351 91.6423 216.333L92.2278 216.626L92.3742 217.212C92.9598 219.263 93.399 221.607 93.9846 223.806C97.3516 237.725 100.279 250.325 102.183 259.556C104.086 268.64 105.11 274.354 104.818 274.354Z" fill="url(#paint4_linear_1042_309)"/>
<path d="M91.0571 218.384C90.7643 217.798 101.597 210.765 115.505 202.56C129.265 194.355 140.831 188.202 141.123 188.787C141.416 189.374 130.583 196.406 116.676 204.611C102.768 212.816 91.3499 218.97 91.0571 218.384Z" fill="url(#paint5_linear_1042_309)"/>
<path d="M178.325 58.0205C178.325 57.8745 179.496 57.1421 181.692 55.6764C183.889 54.2116 187.255 52.1603 191.647 49.5226C200.284 44.2482 212.728 36.7759 227.952 27.5452L228.392 27.2522L228.831 27.3988C240.982 32.5269 255.035 38.3875 270.26 44.8343L270.699 44.9808L270.845 45.5669C275.091 63.1491 279.775 82.343 284.606 102.562L284.752 103.441L284.021 104.028C266.307 114.43 249.472 124.394 234.101 133.477L233.661 133.771L233.223 133.624C217.998 127.03 203.944 121.023 191.793 115.896L191.355 115.749L191.208 115.309C187.109 97.7271 183.742 83.515 181.546 73.5515C180.375 68.5705 179.643 64.7608 179.058 62.1231C178.472 59.4862 178.179 58.0205 178.325 58.0205C178.472 58.0205 178.765 59.3394 179.496 61.9771C180.228 64.614 181.253 68.4237 182.424 73.2587C184.913 83.0754 188.427 97.2875 192.818 114.723C192.672 114.577 192.525 114.283 192.379 114.137C204.529 119.265 218.583 125.126 233.954 131.573C233.661 131.573 233.369 131.573 232.93 131.573C248.301 122.342 265.283 112.379 282.849 101.976C282.703 102.416 282.557 102.856 282.264 103.294C277.433 83.0754 272.895 63.8815 268.65 46.2995C268.796 46.5921 269.088 46.7389 269.235 47.0317C254.01 40.4388 239.956 34.4316 227.952 29.3035C228.245 29.3035 228.538 29.3035 228.685 29.3035C213.313 38.2411 200.724 45.5669 191.939 50.5487C187.548 53.0396 184.181 54.944 181.839 56.2629C179.643 57.4349 178.325 58.1673 178.325 58.0205Z" fill="url(#paint6_linear_1042_309)"/>
<path d="M233.515 132.599C233.222 132.745 231.611 127.03 229.123 118.093C226.78 109.009 223.56 96.4082 220.193 82.4889C219.607 80.2916 219.168 77.9475 218.583 75.8963C218.876 76.1891 219.022 76.4819 219.314 76.6287C207.603 71.6469 197.356 67.1048 190.036 63.7346C182.717 60.3653 178.325 58.3141 178.471 58.0204C178.618 57.7276 183.156 59.4861 190.768 62.4166C198.234 65.3463 208.628 69.5956 220.34 74.5774L220.925 74.8702L221.071 75.4567C221.657 77.5079 222.096 79.852 222.682 82.0501C226.049 95.9685 228.977 108.569 230.88 117.8C232.637 126.884 233.808 132.599 233.515 132.599Z" fill="url(#paint7_linear_1042_309)"/>
<path d="M219.754 75.6029C219.462 75.0173 230.295 67.9843 244.202 59.7792C257.963 51.5741 269.527 45.4206 269.82 46.0066C270.113 46.5923 259.28 53.6254 245.373 61.8304C231.466 70.0355 220.047 76.1893 219.754 75.6029Z" fill="url(#paint8_linear_1042_309)"/>
<path d="M203.614 529.367C381.561 529.367 525.815 385.113 525.815 207.166C525.815 29.2192 381.561 -115.035 203.614 -115.035C25.6675 -115.035 -118.587 29.2192 -118.587 207.166C-118.587 385.113 25.6675 529.367 203.614 529.367Z" fill="url(#paint9_radial_1042_309)"/>
<g opacity="0.87">
<g opacity="0.87">
<path d="M255.747 120.877L270.387 178.459L219.589 208.934L204.803 151.353L255.747 120.877Z" fill="#0B5CFA"/>
<path d="M219.589 208.934L176.989 191.645L162.203 133.917L204.803 151.353L219.589 208.934Z" fill="#0019FF"/>
<path d="M204.803 151.353L162.203 133.917L213.002 103.442L255.748 120.877L204.803 151.353Z" fill="#0019FF"/>
</g>
<g opacity="0.87">
<path d="M255.894 120.731L213.294 103.295L162.349 133.771L177.135 191.352L219.882 208.788L270.68 178.312L255.894 120.731Z" fill="url(#paint10_linear_1042_309)"/>
</g>
</g>
<path d="M108.497 373.913C108.644 373.767 110.401 374.645 113.475 376.404C116.549 378.162 121.087 380.799 126.65 384.022L127.089 384.169V384.609C127.529 389.297 128.114 394.718 128.7 400.579V401.165L128.26 401.459C123.429 405.707 118.16 410.396 112.596 415.377L112.011 415.963L111.279 415.524C104.984 411.714 99.1281 408.051 93.7116 404.682L93.2728 404.388V403.803C92.8332 397.942 92.3944 392.521 92.1016 387.832V387.392L92.3944 387.1C97.2253 382.85 101.325 379.627 104.106 377.283C106.741 374.939 108.351 373.767 108.497 373.913C108.644 374.06 107.18 375.524 104.545 378.015C101.909 380.506 98.1037 384.022 93.4188 388.418C93.5656 388.125 93.5656 387.979 93.7116 387.685C94.1512 392.374 94.7368 397.796 95.3224 403.656C95.1756 403.363 95.0296 403.07 94.8828 402.777C100.299 406.147 106.301 409.663 112.596 413.473C112.158 413.473 111.718 413.619 111.279 413.619C116.842 408.784 122.112 404.095 126.943 399.847C126.796 400.14 126.65 400.432 126.65 400.725C126.211 394.865 125.772 389.444 125.479 384.756C125.625 385.048 125.772 385.194 125.918 385.488C120.501 382.118 116.256 379.334 113.182 377.283C110.108 375.232 108.497 374.06 108.497 373.913Z" fill="url(#paint11_linear_1042_309)"/>
<path d="M94.2971 403.803C93.8583 403.363 99.7136 397.502 107.327 390.616C107.912 390.03 108.498 389.591 109.083 389.004C108.937 389.297 108.791 389.591 108.644 389.883C107.912 380.799 107.765 373.766 108.351 373.766C108.937 373.766 109.961 380.653 110.839 389.737V390.323L110.401 390.763C109.815 391.348 109.229 391.788 108.644 392.374C101.178 399.114 94.7367 404.242 94.2971 403.803Z" fill="url(#paint12_linear_1042_309)"/>
<path d="M109.962 389.883C110.255 389.297 114.5 391.348 119.331 394.279C124.162 397.209 127.968 400.14 127.529 400.725C127.236 401.312 122.99 399.26 118.16 396.33C113.329 393.253 109.522 390.47 109.962 389.883Z" fill="url(#paint13_linear_1042_309)"/>
<path d="M49.0853 35.1601C49.0025 35.0774 49.9108 33.6728 51.6441 31.1122C53.3775 28.551 55.854 24.916 58.9082 20.3718L59.0733 20.2067H59.3207C63.3655 20.0416 67.9879 19.9588 73.0232 19.7937H73.3534L73.5185 20.0416C76.9029 24.4202 80.6175 29.1291 84.4971 34.1686L84.8273 34.5816L84.5794 34.995C80.9477 40.1169 77.5633 44.9913 74.3441 49.4527L74.1789 49.7006H73.8487C68.8134 49.7829 64.191 49.8657 60.1462 49.9485H59.8988L59.7337 49.7829C56.4316 45.4043 53.7077 41.8521 51.8915 39.3737C49.9931 36.647 49.0853 35.2429 49.0853 35.1601C49.1676 35.0774 50.3233 36.3996 52.2218 38.7951C54.203 41.1912 57.0092 44.6611 60.3936 48.957C60.2285 48.8742 60.1462 48.8742 59.9811 48.7919C64.0259 48.6263 68.6483 48.544 73.6836 48.3784C73.5185 48.4612 73.3534 48.544 73.1883 48.6263C76.3248 44.1653 79.7096 39.2081 83.3414 34.0863C83.3414 34.3342 83.3414 34.5816 83.3414 34.8295C79.4617 29.79 75.7472 25.0811 72.4456 20.7025C72.6107 20.7848 72.7758 20.8676 72.9409 20.9503C67.9055 21.0327 63.2831 21.1154 59.2384 21.1982C59.4035 21.1154 59.4858 21.0327 59.6509 20.9503C56.5144 25.329 53.8728 28.964 52.0567 31.4424C50.241 33.8384 49.1676 35.2429 49.0853 35.1601Z" fill="url(#paint14_linear_1042_309)"/>
<path d="M73.8491 48.9571C73.6012 49.2049 68.9788 43.7524 63.6133 36.895C63.2007 36.3169 62.7877 35.7383 62.3752 35.243C62.5403 35.3253 62.7054 35.4081 62.8705 35.4909C55.1112 35.656 49.168 35.4909 49.168 35.1602C49.168 34.8296 55.1112 34.4166 62.8705 34.1687H63.2007L63.3658 34.4166C63.7783 34.9123 64.1913 35.4909 64.6039 36.069C69.9695 43.0088 74.0966 48.7092 73.8491 48.9571Z" fill="url(#paint15_linear_1042_309)"/>
<path d="M62.8697 34.8294C62.5395 34.6643 64.603 31.1944 67.4098 27.2288C70.216 23.1808 72.7754 20.1239 73.0228 20.3717C73.353 20.5373 71.2894 24.0067 68.4827 27.9724C65.6764 31.9381 63.1176 35.0773 62.8697 34.8294Z" fill="url(#paint16_linear_1042_309)"/>
<path d="M417.819 360.944C417.74 360.865 418.61 359.519 420.271 357.066C421.931 354.613 424.304 351.131 427.229 346.777L427.388 346.619H427.625C431.499 346.461 435.928 346.382 440.751 346.224H441.068L441.226 346.461C444.468 350.656 448.026 355.167 451.743 359.994L452.059 360.39L451.822 360.786C448.343 365.693 445.101 370.362 442.017 374.636L441.859 374.874H441.542C436.718 374.952 432.29 375.032 428.416 375.111H428.178L428.02 374.952C424.857 370.758 422.248 367.355 420.508 364.981C418.689 362.369 417.819 361.023 417.819 360.944C417.898 360.865 419.005 362.131 420.824 364.426C422.722 366.722 425.41 370.046 428.653 374.161C428.494 374.082 428.416 374.082 428.257 374.003C432.132 373.844 436.56 373.766 441.384 373.607C441.226 373.686 441.068 373.766 440.91 373.844C443.914 369.571 447.157 364.822 450.636 359.915C450.636 360.153 450.636 360.39 450.636 360.627C446.919 355.8 443.361 351.289 440.198 347.094C440.356 347.173 440.514 347.252 440.672 347.332C435.849 347.41 431.421 347.49 427.546 347.569C427.704 347.49 427.783 347.41 427.941 347.332C424.936 351.526 422.406 355.008 420.666 357.383C418.927 359.678 417.898 361.023 417.819 360.944Z" fill="url(#paint17_linear_1042_309)"/>
<path d="M441.543 374.161C441.305 374.399 436.877 369.175 431.737 362.606C431.342 362.052 430.946 361.498 430.551 361.023C430.709 361.102 430.867 361.182 431.026 361.261C423.592 361.419 417.899 361.261 417.899 360.944C417.899 360.627 423.592 360.232 431.026 359.994H431.342L431.5 360.232C431.895 360.707 432.291 361.261 432.686 361.815C437.826 368.463 441.78 373.924 441.543 374.161Z" fill="url(#paint18_linear_1042_309)"/>
<path d="M431.025 360.627C430.709 360.469 432.685 357.145 435.374 353.346C438.063 349.468 440.514 346.54 440.751 346.777C441.068 346.936 439.091 350.26 436.402 354.059C433.714 357.858 431.262 360.865 431.025 360.627Z" fill="url(#paint19_linear_1042_309)"/>
<path d="M15.3141 336.01C15.2348 335.931 16.1049 334.586 17.7654 332.132C19.4259 329.679 21.7983 326.197 24.7241 321.843L24.8823 321.685H25.1193C28.9941 321.527 33.4222 321.448 38.246 321.29H38.5623L38.7205 321.527C41.9626 325.722 45.5211 330.233 49.2377 335.06L49.554 335.456L49.3165 335.852C45.8374 340.759 42.5953 345.428 39.5113 349.702L39.3531 349.94H39.0368C34.213 350.019 29.7849 350.098 25.9101 350.177H25.6731L25.5149 350.019C22.3517 345.824 19.7422 342.421 18.0024 340.047C16.1837 337.435 15.3141 336.09 15.3141 336.01C15.3929 335.931 16.5001 337.198 18.3187 339.493C20.2167 341.788 22.905 345.112 26.1471 349.227C25.989 349.148 25.9101 349.148 25.752 349.069C29.6268 348.911 34.0549 348.832 38.8786 348.673C38.7205 348.752 38.5623 348.832 38.4042 348.911C41.4088 344.637 44.6514 339.888 48.1305 334.982C48.1305 335.219 48.1305 335.456 48.1305 335.694C44.4139 330.866 40.8555 326.355 37.6927 322.16C37.8508 322.239 38.009 322.318 38.1671 322.398C33.3434 322.477 28.9152 322.556 25.0405 322.635C25.1986 322.556 25.2775 322.477 25.4356 322.398C22.431 326.592 19.9004 330.075 18.1606 332.449C16.4212 334.744 15.3929 336.09 15.3141 336.01Z" fill="url(#paint20_linear_1042_309)"/>
<path d="M39.0375 349.227C38.8 349.465 34.3719 344.241 29.2318 337.672C28.8366 337.118 28.4409 336.564 28.0457 336.09C28.2039 336.168 28.3621 336.248 28.5203 336.327C21.087 336.485 15.3936 336.327 15.3936 336.01C15.3936 335.694 21.087 335.298 28.5203 335.06H28.8366L28.9947 335.298C29.3899 335.773 29.7856 336.327 30.1807 336.881C35.3208 343.529 39.2745 348.99 39.0375 349.227Z" fill="url(#paint21_linear_1042_309)"/>
<path d="M28.5196 335.694C28.2033 335.535 30.1801 332.211 32.8689 328.412C35.5572 324.534 38.009 321.606 38.246 321.843C38.5623 322.002 36.5855 325.326 33.8967 329.125C31.2084 332.924 28.7571 335.931 28.5196 335.694Z" fill="url(#paint22_linear_1042_309)"/>
<path d="M399.584 35.1481C399.504 35.0688 400.374 33.7233 402.035 31.2703C403.695 28.8168 406.068 25.3345 408.994 20.9813L409.152 20.8231H409.389C413.264 20.665 417.692 20.5857 422.516 20.4275H422.832L422.99 20.665C426.232 24.8596 429.791 29.3706 433.507 34.1983L433.824 34.5939L433.586 34.99C430.107 39.8966 426.865 44.5661 423.781 48.8401L423.623 49.0775H423.306C418.483 49.1564 414.054 49.2357 410.18 49.315H409.943L409.784 49.1564C406.621 44.9618 404.012 41.5588 402.272 39.1846C400.453 36.5725 399.584 35.2274 399.584 35.1481C399.662 35.0688 400.77 36.3355 402.588 38.6304C404.486 40.9257 407.175 44.2498 410.417 48.3651C410.259 48.2858 410.18 48.2858 410.022 48.207C413.896 48.0484 418.324 47.9695 423.148 47.8109C422.99 47.8902 422.832 47.9695 422.674 48.0484C425.678 43.7749 428.921 39.026 432.4 34.1194C432.4 34.3569 432.4 34.5939 432.4 34.8314C428.683 30.0036 425.125 25.4927 421.962 21.298C422.12 21.3769 422.278 21.4562 422.437 21.5355C417.613 21.6144 413.185 21.6937 409.31 21.773C409.468 21.6937 409.547 21.6144 409.705 21.5355C406.701 25.7301 404.17 29.2124 402.43 31.5866C400.691 33.8819 399.662 35.2274 399.584 35.1481Z" fill="url(#paint23_linear_1042_309)"/>
<path d="M423.307 48.3651C423.07 48.6026 418.641 43.3792 413.501 36.8099C413.106 36.2561 412.71 35.7019 412.315 35.2274C412.473 35.3063 412.632 35.3856 412.79 35.4649C405.357 35.623 399.663 35.4649 399.663 35.1481C399.663 34.8313 405.357 34.4357 412.79 34.1982H413.106L413.264 34.4357C413.659 34.9106 414.055 35.4649 414.45 36.0187C419.59 42.6668 423.544 48.1276 423.307 48.3651Z" fill="url(#paint24_linear_1042_309)"/>
<path d="M412.789 34.8311C412.473 34.6729 414.45 31.3489 417.138 27.5498C419.827 23.672 422.278 20.7435 422.516 20.981C422.832 21.1396 420.855 24.4632 418.166 28.2622C415.478 32.0613 413.027 35.0686 412.789 34.8311Z" fill="url(#paint25_linear_1042_309)"/>
<path d="M392.129 187.853C392.02 187.743 393.224 185.88 395.522 182.485C397.821 179.089 401.105 174.269 405.154 168.244L405.373 168.025H405.701C411.065 167.806 417.194 167.696 423.871 167.477H424.308L424.527 167.806C429.015 173.612 433.94 179.856 439.085 186.538L439.523 187.085L439.194 187.634C434.378 194.425 429.891 200.888 425.622 206.804L425.403 207.133H424.965C418.288 207.242 412.159 207.352 406.796 207.462H406.468L406.249 207.242C401.871 201.436 398.259 196.726 395.85 193.44C393.333 189.824 392.129 187.962 392.129 187.853C392.239 187.743 393.771 189.496 396.288 192.673C398.915 195.85 402.636 200.451 407.124 206.147C406.905 206.037 406.796 206.037 406.577 205.928C411.94 205.708 418.07 205.599 424.746 205.38C424.527 205.489 424.308 205.599 424.09 205.708C428.248 199.793 432.737 193.22 437.552 186.429C437.552 186.757 437.552 187.085 437.552 187.414C432.408 180.732 427.483 174.488 423.105 168.682C423.324 168.791 423.543 168.901 423.761 169.011C417.085 169.12 410.955 169.23 405.592 169.339C405.811 169.23 405.92 169.12 406.139 169.011C401.98 174.817 398.478 179.637 396.069 182.923C393.662 186.1 392.239 187.962 392.129 187.853Z" fill="url(#paint26_linear_1042_309)"/>
<path d="M424.966 206.147C424.637 206.476 418.508 199.246 411.393 190.153C410.846 189.386 410.299 188.619 409.752 187.963C409.971 188.072 410.19 188.182 410.409 188.291C400.12 188.51 392.239 188.291 392.239 187.853C392.239 187.414 400.12 186.867 410.409 186.538H410.846L411.065 186.867C411.612 187.524 412.16 188.291 412.707 189.058C419.822 198.26 425.294 205.818 424.966 206.147Z" fill="url(#paint27_linear_1042_309)"/>
<path d="M410.408 187.414C409.971 187.195 412.707 182.594 416.428 177.336C420.149 171.968 423.543 167.915 423.871 168.244C424.309 168.463 421.573 173.064 417.851 178.322C414.13 183.58 410.737 187.743 410.408 187.414Z" fill="url(#paint28_linear_1042_309)"/>
<path d="M448.253 119.998C448.107 119.705 453.963 117.507 463.185 114.284L463.624 114.137L464.063 114.43C466.991 116.481 470.505 118.972 474.165 121.463L474.603 121.756V122.342C474.75 127.324 474.75 132.745 474.896 138.459V139.338L474.165 139.631C468.748 141.389 463.624 143.001 458.94 144.466L458.354 144.612L457.915 144.32C454.255 141.536 450.889 139.192 447.961 136.994L447.521 136.701V136.261C447.668 126.298 447.961 119.998 448.253 119.998C448.546 119.998 448.985 126.152 449.425 136.115C449.278 135.822 449.132 135.675 449.132 135.382C452.206 137.433 455.573 139.777 459.379 142.415C459.086 142.415 458.794 142.268 458.501 142.268C463.185 140.657 468.309 139.045 473.726 137.287C473.433 137.58 473.14 138.02 472.993 138.459C472.993 132.745 472.847 127.324 472.847 122.342C472.993 122.635 473.14 122.928 473.286 123.221C469.627 120.584 466.26 118.093 463.332 115.895C463.624 115.895 463.917 116.042 464.063 116.042C454.402 118.826 448.399 120.438 448.253 119.998Z" fill="url(#paint29_linear_1042_309)"/>
<path d="M458.647 143.44C458.061 143.44 457.476 137.141 457.33 129.228C457.33 128.643 457.33 127.909 457.33 127.324C457.476 127.617 457.622 127.909 457.768 128.203C452.059 124.101 447.961 120.584 448.399 119.998C448.692 119.558 453.377 122.342 459.086 126.298L459.525 126.591V127.177C459.525 127.763 459.525 128.349 459.525 129.082C459.672 136.994 459.232 143.44 458.647 143.44Z" fill="url(#paint30_linear_1042_309)"/>
<path d="M458.355 127.324C458.208 126.737 461.429 125.126 465.674 123.807C469.92 122.489 473.433 121.902 473.579 122.489C473.726 123.074 470.505 124.686 466.26 126.005C462.161 127.324 458.501 127.909 458.355 127.324Z" fill="url(#paint31_linear_1042_309)"/>
<path d="M265.263 291.863C265.263 291.717 266.434 290.984 268.63 289.519C270.826 288.054 274.193 286.003 278.585 283.365C287.222 278.09 299.665 270.618 314.89 261.387L315.329 261.094L315.768 261.24C327.919 266.369 341.973 272.229 357.198 278.677L357.636 278.823L357.783 279.409C362.029 296.991 366.713 316.185 371.544 336.404L371.69 337.284L370.959 337.723C353.245 348.125 336.41 358.089 321.038 367.173L320.599 367.466L320.161 367.319C304.935 360.726 290.882 354.719 278.731 349.591L278.292 349.444L278.146 349.005C274.047 331.422 270.68 317.21 268.484 307.248C267.313 302.266 266.58 298.456 265.995 295.819C265.409 293.328 265.263 291.863 265.263 291.863C265.409 291.863 265.702 293.182 266.434 295.819C267.166 298.456 268.191 302.266 269.362 307.101C271.851 316.918 275.364 331.13 279.756 348.565C279.61 348.419 279.463 348.125 279.317 347.979C291.467 353.107 305.521 358.968 320.892 365.415C320.599 365.415 320.307 365.415 319.868 365.415C335.239 356.185 352.22 346.221 369.787 335.819C369.641 336.257 369.495 336.697 369.202 337.137C364.371 316.918 359.833 297.724 355.587 280.142C355.734 280.434 356.026 280.581 356.172 280.874C340.948 274.281 326.894 268.274 314.89 263.146C315.183 263.146 315.476 263.146 315.622 263.146C300.251 272.083 287.661 279.409 278.877 284.391C274.486 286.882 271.118 288.786 268.777 290.105C266.58 291.277 265.409 292.01 265.263 291.863Z" fill="url(#paint32_linear_1042_309)"/>
<path d="M320.453 366.44C320.16 366.587 318.55 360.873 316.061 351.935C313.719 342.851 310.498 330.251 307.131 316.331C306.546 314.134 306.106 311.789 305.52 309.738C305.813 310.031 305.96 310.324 306.253 310.471C294.541 305.489 284.294 300.947 276.974 297.577C269.655 294.208 265.263 292.156 265.409 291.863C265.555 291.57 270.094 293.329 277.706 296.259C285.172 299.189 295.566 303.438 307.277 308.42L307.863 308.713L308.01 309.299C308.595 311.35 309.034 313.694 309.62 315.892C312.987 329.811 315.915 342.411 317.817 351.643C319.721 360.58 320.746 366.294 320.453 366.44Z" fill="url(#paint33_linear_1042_309)"/>
<path d="M306.692 309.445C306.4 308.859 317.233 301.826 331.14 293.621C344.901 285.416 356.466 279.262 356.759 279.849C357.052 280.434 346.219 287.467 332.311 295.673C318.55 303.731 306.985 310.031 306.692 309.445Z" fill="url(#paint34_linear_1042_309)"/>
<g opacity="0.87">
<g opacity="0.87">
<g opacity="0.87">
<g opacity="0.87">
<path opacity="0.87" d="M270.68 178.165L285.465 235.747L234.667 266.222L219.882 208.641L270.68 178.165Z" fill="#0B5CFA"/>
</g>
<g opacity="0.87">
<path opacity="0.87" d="M234.667 266.222L191.921 248.787L177.135 191.205L219.882 208.641L234.667 266.222Z" fill="#0019FF"/>
</g>
<g opacity="0.87">
<path opacity="0.87" d="M219.882 208.641L177.135 191.205L228.079 160.73L270.68 178.165L219.882 208.641Z" fill="#0019FF"/>
</g>
</g>
</g>
<g opacity="0.87">
<path opacity="0.87" d="M270.973 177.872L228.226 160.583L177.428 191.058L192.214 248.64L234.814 265.929L285.612 235.454L270.973 177.872Z" fill="url(#paint35_linear_1042_309)"/>
</g>
</g>
<g opacity="0.87">
<g opacity="0.87">
<path d="M218.856 208.934L233.641 266.515L182.843 296.991L168.058 239.41L218.856 208.934Z" fill="#0B5CFA"/>
<path d="M182.844 296.991L140.097 279.555L125.458 221.974L168.057 239.41L182.844 296.991Z" fill="#0019FF"/>
<path d="M168.057 239.41L125.458 221.974L176.256 191.498L218.856 208.934L168.057 239.41Z" fill="#0019FF"/>
</g>
<g opacity="0.87">
<path d="M219.148 208.641L176.401 191.352L125.604 221.827L140.389 279.409L182.989 296.698L233.787 266.222L219.148 208.641Z" fill="url(#paint36_linear_1042_309)"/>
</g>
</g>
<g opacity="0.87">
<g opacity="0.87">
<path opacity="0.87" d="M312.401 195.747L327.04 253.329L276.242 283.804L261.457 226.223L312.401 195.747Z" fill="#0B5CFA"/>
</g>
<g opacity="0.87">
<path d="M276.242 283.804L233.642 266.515L218.856 208.934L261.457 226.223L276.242 283.804Z" fill="#0019FF"/>
</g>
<g opacity="0.87">
<path d="M261.457 226.223L218.856 208.934L269.655 178.458L312.402 195.747L261.457 226.223Z" fill="#0019FF"/>
</g>
<g opacity="0.87">
<path d="M312.547 195.601L269.947 178.165L219.002 208.641L233.788 266.222L276.534 283.658L327.332 253.182L312.547 195.601Z" fill="url(#paint37_linear_1042_309)"/>
</g>
</g>
<defs>
<linearGradient id="paint0_linear_1042_309" x1="250.433" y1="222.569" x2="254.903" y2="222.569" gradientUnits="userSpaceOnUse">
<stop stop-color="#017EF1"/>
<stop offset="1" stop-color="#334DD8" stop-opacity="0.2"/>
</linearGradient>
<linearGradient id="paint1_linear_1042_309" x1="221.727" y1="187.847" x2="226.197" y2="187.847" gradientUnits="userSpaceOnUse">
<stop stop-color="#016FF1"/>
<stop offset="1" stop-color="#3375D8" stop-opacity="0.2"/>
</linearGradient>
<linearGradient id="paint2_linear_1042_309" x1="203.674" y1="230.237" x2="208.145" y2="230.237" gradientUnits="userSpaceOnUse">
<stop stop-color="#0153F1"/>
<stop offset="1" stop-color="#D8B633" stop-opacity="0.2"/>
<stop offset="1" stop-color="#336BD8" stop-opacity="0.2"/>
</linearGradient>
<linearGradient id="paint3_linear_1042_309" x1="49.6279" y1="222.399" x2="156.061" y2="222.399" gradientUnits="userSpaceOnUse">
<stop stop-color="#F1B101"/>
<stop offset="1" stop-color="#D8B633" stop-opacity="0.2"/>
</linearGradient>
<linearGradient id="paint4_linear_1042_309" x1="49.6422" y1="237.067" x2="104.849" y2="237.067" gradientUnits="userSpaceOnUse">
<stop stop-color="#F1B101"/>
<stop offset="1" stop-color="#D8B633" stop-opacity="0.2"/>
</linearGradient>
<linearGradient id="paint5_linear_1042_309" x1="91.0581" y1="203.607" x2="141.063" y2="203.607" gradientUnits="userSpaceOnUse">
<stop stop-color="#F1B101"/>
<stop offset="1" stop-color="#D8B633" stop-opacity="0.2"/>
</linearGradient>
<linearGradient id="paint6_linear_1042_309" x1="178.29" y1="80.6587" x2="284.721" y2="80.6587" gradientUnits="userSpaceOnUse">
<stop stop-color="#F1B101"/>
<stop offset="1" stop-color="#D8B633" stop-opacity="0.2"/>
</linearGradient>
<linearGradient id="paint7_linear_1042_309" x1="178.304" y1="95.3267" x2="233.509" y2="95.3267" gradientUnits="userSpaceOnUse">
<stop stop-color="#F1B101"/>
<stop offset="1" stop-color="#D8B633" stop-opacity="0.2"/>
</linearGradient>
<linearGradient id="paint8_linear_1042_309" x1="219.718" y1="60.8427" x2="269.724" y2="60.8427" gradientUnits="userSpaceOnUse">
<stop stop-color="#0161F1"/>
<stop offset="1" stop-color="#334DD8" stop-opacity="0.2"/>
</linearGradient>
<radialGradient id="paint9_radial_1042_309" cx="0" cy="0" r="1" gradientUnits="userSpaceOnUse" gradientTransform="translate(207.86 208.917) rotate(141.869) scale(464.388 528.163)">
<stop stop-color="#129AFD" stop-opacity="0.21"/>
<stop offset="0.447917" stop-color="#2D74FD" stop-opacity="0"/>
</radialGradient>
<linearGradient id="paint10_linear_1042_309" x1="274.494" y1="121.497" x2="186.719" y2="173.689" gradientUnits="userSpaceOnUse">
<stop stop-color="#92BDFD"/>
<stop offset="1" stop-color="#3375D8" stop-opacity="0.2"/>
</linearGradient>
<linearGradient id="paint11_linear_1042_309" x1="91.9588" y1="394.913" x2="128.706" y2="394.913" gradientUnits="userSpaceOnUse">
<stop stop-color="#F1B101"/>
<stop offset="1" stop-color="#D8B633" stop-opacity="0.2"/>
</linearGradient>
<linearGradient id="paint12_linear_1042_309" x1="94.2506" y1="388.825" x2="111.1" y2="388.825" gradientUnits="userSpaceOnUse">
<stop stop-color="#F1B101"/>
<stop offset="1" stop-color="#D8B633" stop-opacity="0.2"/>
</linearGradient>
<linearGradient id="paint13_linear_1042_309" x1="109.897" y1="395.285" x2="127.613" y2="395.285" gradientUnits="userSpaceOnUse">
<stop stop-color="#0153F1"/>
<stop offset="1" stop-color="#3375D8" stop-opacity="0.2"/>
</linearGradient>
<linearGradient id="paint14_linear_1042_309" x1="49.1211" y1="34.7527" x2="84.7947" y2="34.7527" gradientUnits="userSpaceOnUse">
<stop stop-color="#0161F1"/>
<stop offset="1" stop-color="#3375D8" stop-opacity="0.2"/>
</linearGradient>
<linearGradient id="paint15_linear_1042_309" x1="49.1261" y1="41.5785" x2="73.8317" y2="41.5785" gradientUnits="userSpaceOnUse">
<stop stop-color="#0161F1"/>
<stop offset="1" stop-color="#3393D8" stop-opacity="0.2"/>
</linearGradient>
<linearGradient id="paint16_linear_1042_309" x1="62.8186" y1="27.5866" x2="73.0582" y2="27.5866" gradientUnits="userSpaceOnUse">
<stop stop-color="#018CF1"/>
<stop offset="1" stop-color="#3393D8" stop-opacity="0.2"/>
</linearGradient>
<linearGradient id="paint17_linear_1042_309" x1="417.854" y1="360.554" x2="452.028" y2="360.554" gradientUnits="userSpaceOnUse">
<stop stop-color="#0161F1"/>
<stop offset="1" stop-color="#3375D8" stop-opacity="0.2"/>
</linearGradient>
<linearGradient id="paint18_linear_1042_309" x1="417.859" y1="367.093" x2="441.526" y2="367.093" gradientUnits="userSpaceOnUse">
<stop stop-color="#0161F1"/>
<stop offset="1" stop-color="#3393D8" stop-opacity="0.2"/>
</linearGradient>
<linearGradient id="paint19_linear_1042_309" x1="430.976" y1="353.689" x2="440.785" y2="353.689" gradientUnits="userSpaceOnUse">
<stop stop-color="#018CF1"/>
<stop offset="1" stop-color="#3393D8" stop-opacity="0.2"/>
</linearGradient>
<linearGradient id="paint20_linear_1042_309" x1="15.3484" y1="335.62" x2="49.5227" y2="335.62" gradientUnits="userSpaceOnUse">
<stop stop-color="#0161F1"/>
<stop offset="1" stop-color="#3375D8" stop-opacity="0.2"/>
</linearGradient>
<linearGradient id="paint21_linear_1042_309" x1="15.3535" y1="342.159" x2="39.0207" y2="342.159" gradientUnits="userSpaceOnUse">
<stop stop-color="#0161F1"/>
<stop offset="1" stop-color="#3393D8" stop-opacity="0.2"/>
</linearGradient>
<linearGradient id="paint22_linear_1042_309" x1="28.4707" y1="328.755" x2="38.2799" y2="328.755" gradientUnits="userSpaceOnUse">
<stop stop-color="#018CF1"/>
<stop offset="1" stop-color="#3393D8" stop-opacity="0.2"/>
</linearGradient>
<linearGradient id="paint23_linear_1042_309" x1="399.618" y1="34.7578" x2="433.792" y2="34.7578" gradientUnits="userSpaceOnUse">
<stop stop-color="#0161F1"/>
<stop offset="1" stop-color="#3375D8" stop-opacity="0.2"/>
</linearGradient>
<linearGradient id="paint24_linear_1042_309" x1="399.623" y1="41.2966" x2="423.29" y2="41.2966" gradientUnits="userSpaceOnUse">
<stop stop-color="#0161F1"/>
<stop offset="1" stop-color="#3393D8" stop-opacity="0.2"/>
</linearGradient>
<linearGradient id="paint25_linear_1042_309" x1="412.74" y1="27.8926" x2="422.549" y2="27.8926" gradientUnits="userSpaceOnUse">
<stop stop-color="#018CF1"/>
<stop offset="1" stop-color="#3393D8" stop-opacity="0.2"/>
</linearGradient>
<linearGradient id="paint26_linear_1042_309" x1="392.177" y1="187.312" x2="439.479" y2="187.312" gradientUnits="userSpaceOnUse">
<stop stop-color="#0161F1"/>
<stop offset="1" stop-color="#3375D8" stop-opacity="0.2"/>
</linearGradient>
<linearGradient id="paint27_linear_1042_309" x1="392.184" y1="196.363" x2="424.943" y2="196.363" gradientUnits="userSpaceOnUse">
<stop stop-color="#0161F1"/>
<stop offset="1" stop-color="#3393D8" stop-opacity="0.2"/>
</linearGradient>
<linearGradient id="paint28_linear_1042_309" x1="410.341" y1="177.81" x2="423.918" y2="177.81" gradientUnits="userSpaceOnUse">
<stop stop-color="#018CF1"/>
<stop offset="1" stop-color="#3393D8" stop-opacity="0.2"/>
</linearGradient>
<linearGradient id="paint29_linear_1042_309" x1="447.657" y1="129.378" x2="474.956" y2="129.378" gradientUnits="userSpaceOnUse">
<stop stop-color="#F1B101"/>
<stop offset="1" stop-color="#D8B633" stop-opacity="0.2"/>
</linearGradient>
<linearGradient id="paint30_linear_1042_309" x1="448.279" y1="131.708" x2="459.55" y2="131.708" gradientUnits="userSpaceOnUse">
<stop stop-color="#0161F1"/>
<stop offset="1" stop-color="#3389D8" stop-opacity="0.2"/>
</linearGradient>
<linearGradient id="paint31_linear_1042_309" x1="458.348" y1="124.82" x2="473.568" y2="124.82" gradientUnits="userSpaceOnUse">
<stop stop-color="#0153F1"/>
<stop offset="1" stop-color="#3375D8" stop-opacity="0.2"/>
</linearGradient>
<linearGradient id="paint32_linear_1042_309" x1="265.294" y1="314.466" x2="371.727" y2="314.466" gradientUnits="userSpaceOnUse">
<stop stop-color="#017EF1"/>
<stop offset="1" stop-color="#3389D8" stop-opacity="0.2"/>
</linearGradient>
<linearGradient id="paint33_linear_1042_309" x1="265.309" y1="329.134" x2="320.516" y2="329.134" gradientUnits="userSpaceOnUse">
<stop stop-color="#0153F1"/>
<stop offset="1" stop-color="#3361D8" stop-opacity="0.2"/>
</linearGradient>
<linearGradient id="paint34_linear_1042_309" x1="306.725" y1="294.65" x2="356.729" y2="294.65" gradientUnits="userSpaceOnUse">
<stop stop-color="#0161F1"/>
<stop offset="1" stop-color="#3389D8" stop-opacity="0.2"/>
</linearGradient>
<linearGradient id="paint35_linear_1042_309" x1="289.53" y1="178.716" x2="201.755" y2="230.908" gradientUnits="userSpaceOnUse">
<stop stop-color="#7A9FFD"/>
<stop offset="1" stop-color="#334DD8" stop-opacity="0.2"/>
</linearGradient>
<linearGradient id="paint36_linear_1042_309" x1="237.714" y1="209.492" x2="149.939" y2="261.685" gradientUnits="userSpaceOnUse">
<stop stop-color="#0161F1"/>
<stop offset="1" stop-color="#BACDFF" stop-opacity="0.2"/>
</linearGradient>
<linearGradient id="paint37_linear_1042_309" x1="331.164" y1="196.418" x2="243.389" y2="248.611" gradientUnits="userSpaceOnUse">
<stop stop-color="#6A9BFA"/>
<stop offset="1" stop-color="#3375D8" stop-opacity="0.2"/>
</linearGradient>
</defs>
</svg>
