<svg width="76" height="74" viewBox="0 0 76 74" fill="none" xmlns="http://www.w3.org/2000/svg">
<g id="Group 1148">
<g id="Group 1142">
<path id="Vector 4" d="M33 3H3V31" stroke="white" stroke-width="5"/>
<path id="Vector 6" d="M2.99997 41.0946L3.10132 71.0944L31.1012 70.9998" stroke="white" stroke-width="5"/>
<path id="Vector 5" d="M73.1421 32.9997L72.9998 3L45.0001 3.13285" stroke="white" stroke-width="5"/>
<path id="Vector 7" d="M43.2123 71.2266L73.2114 70.9992L72.9992 43" stroke="white" stroke-width="5"/>
</g>
<path id="Vector" d="M50.7638 30.2362C50.0552 29.5272 49.2139 28.9649 48.2879 28.5812C47.3619 28.1975 46.3694 28 45.367 28C44.3647 28 43.3722 28.1975 42.4462 28.5812C41.5202 28.9649 40.6788 29.5272 39.9702 30.2362L38.4996 31.7068L37.029 30.2362C35.5977 28.8048 33.6564 28.0007 31.6322 28.0007C29.608 28.0007 27.6668 28.8048 26.2354 30.2362C24.8041 31.6675 24 33.6088 24 35.633C24 37.6572 24.8041 39.5985 26.2354 41.0298L27.706 42.5004L38.4996 53.294L49.2932 42.5004L50.7638 41.0298C51.4728 40.3212 52.0351 39.4798 52.4188 38.5538C52.8025 37.6278 53 36.6353 53 35.633C53 34.6306 52.8025 33.6381 52.4188 32.7121C52.0351 31.7861 51.4728 30.9448 50.7638 30.2362Z" stroke="white" stroke-width="2.77471" stroke-linecap="round" stroke-linejoin="round"/>
</g>
</svg>
