<svg width="76" height="74" viewBox="0 0 76 74" fill="none" xmlns="http://www.w3.org/2000/svg">
<path d="M33 3H3V31" stroke="white" stroke-width="5"/>
<path d="M2.99997 41.0946L3.10132 71.0944L31.1012 70.9998" stroke="white" stroke-width="5"/>
<path d="M73.1421 32.9997L72.9998 3L45.0001 3.13285" stroke="white" stroke-width="5"/>
<path d="M43.2123 71.2266L73.2114 70.9992L72.9992 43" stroke="white" stroke-width="5"/>
<path d="M34.9167 39.7917C35.4715 40.5333 36.1792 41.1469 36.9919 41.5909C37.8046 42.0349 38.7033 42.299 39.627 42.3651C40.5507 42.4313 41.4779 42.298 42.3456 41.9743C43.2133 41.6507 44.0012 41.1442 44.6559 40.4892L48.5309 36.6142C49.7074 35.3961 50.3583 33.7648 50.3436 32.0714C50.3289 30.378 49.6497 28.7582 48.4522 27.5608C47.2548 26.3634 45.635 25.6841 43.9416 25.6694C42.2483 25.6547 40.6169 26.3057 39.3988 27.4821L37.1772 29.6909" stroke="white" stroke-width="2.58333" stroke-linecap="round" stroke-linejoin="round"/>
<path d="M40.0833 37.2083C39.5286 36.4668 38.8209 35.8531 38.0082 35.4091C37.1955 34.9651 36.2968 34.7011 35.3731 34.6349C34.4494 34.5688 33.5222 34.702 32.6545 35.0257C31.7868 35.3494 30.9989 35.8559 30.3442 36.5108L26.4692 40.3858C25.2927 41.6039 24.6418 43.2353 24.6565 44.9286C24.6712 46.622 25.3504 48.2418 26.5479 49.4393C27.7453 50.6367 29.3651 51.3159 31.0585 51.3306C32.7518 51.3453 34.3832 50.6944 35.6013 49.5179L37.81 47.3092" stroke="white" stroke-width="2.58333" stroke-linecap="round" stroke-linejoin="round"/>
</svg>
