<svg width="62" height="62" viewBox="0 0 62 62" fill="none" xmlns="http://www.w3.org/2000/svg">
<circle cx="31" cy="31" r="31" fill="url(#paint0_linear_1042_211)"/>
<path d="M22.6434 24.3957C22.6434 31.8768 48.4549 35.8522 40.9738 35.8522C33.4928 35.8522 15.2303 29.0463 15.2303 21.5653C15.2303 14.0842 36.1884 12.2653 43.6695 12.2653C51.1505 12.2653 22.6434 16.9147 22.6434 24.3957Z" fill="#0029FF"/>
<path d="M38.3212 35.9829C37.7471 28.5239 11.7067 26.5408 19.1657 25.9668C26.6247 25.3927 45.3555 30.7772 45.9296 38.2362C46.5036 45.6952 25.7469 49.117 18.2879 49.6911C10.8289 50.2651 38.8952 43.4419 38.3212 35.9829Z" fill="#0029FF"/>
<defs>
<linearGradient id="paint0_linear_1042_211" x1="10.5137" y1="7.26683" x2="31" y2="62" gradientUnits="userSpaceOnUse">
<stop stop-color="white"/>
<stop offset="1" stop-color="white"/>
</linearGradient>
</defs>
</svg>
