<svg width="76" height="74" viewBox="0 0 76 74" fill="none" xmlns="http://www.w3.org/2000/svg">
<path d="M33 3H3V31" stroke="white" stroke-width="5"/>
<path d="M2.99997 41.0946L3.10132 71.0944L31.1012 70.9998" stroke="white" stroke-width="5"/>
<path d="M73.1421 32.9997L72.9998 3L45.0001 3.13285" stroke="white" stroke-width="5"/>
<path d="M43.2123 71.2266L73.2114 70.9992L72.9992 43" stroke="white" stroke-width="5"/>
<path d="M32.6249 50.4166C33.3383 50.4166 33.9166 49.8383 33.9166 49.125C33.9166 48.4116 33.3383 47.8333 32.6249 47.8333C31.9116 47.8333 31.3333 48.4116 31.3333 49.125C31.3333 49.8383 31.9116 50.4166 32.6249 50.4166Z" stroke="white" stroke-width="2.58333" stroke-linecap="round" stroke-linejoin="round"/>
<path d="M46.8334 50.4166C47.5468 50.4166 48.1251 49.8383 48.1251 49.125C48.1251 48.4116 47.5468 47.8333 46.8334 47.8333C46.12 47.8333 45.5417 48.4116 45.5417 49.125C45.5417 49.8383 46.12 50.4166 46.8334 50.4166Z" stroke="white" stroke-width="2.58333" stroke-linecap="round" stroke-linejoin="round"/>
<path d="M22.2917 23.2917H27.4584L30.9201 40.5871C31.0382 41.1818 31.3617 41.716 31.834 42.0962C32.3063 42.4763 32.8972 42.6783 33.5034 42.6667H46.0584C46.6646 42.6783 47.2556 42.4763 47.7278 42.0962C48.2001 41.716 48.5236 41.1818 48.6417 40.5871L50.7084 29.75H28.7501" stroke="white" stroke-width="2.58333" stroke-linecap="round" stroke-linejoin="round"/>
</svg>
