<svg xmlns="http://www.w3.org/2000/svg" width="63" height="63" viewBox="0 0 63 63" fill="none">
  <circle cx="31.0971" cy="31.0969" r="30.5354" fill="black"/>
  <circle cx="31.0971" cy="31.0969" r="30.5354" fill="url(#paint0_radial_37_4301)"/>
  <circle cx="31.0969" cy="31.0969" r="30.5354" transform="rotate(-178.937 31.0969 31.0969)" fill="url(#paint1_radial_37_4301)"/>
  <path d="M31.074 8.86719L38.0149 20.8892H36.524L31.074 11.5922L25.5439 20.8892H24.1331L31.074 8.86719Z" fill="#0029FF"/>
  <path d="M52.0802 47.5804L38.2417 46.4853L39.0867 45.2569L49.8351 46.036L45.3098 36.2107L46.1093 35.0483L52.0802 47.5804Z" fill="#0029FF"/>
  <path d="M10.3554 47.7713L15.7842 34.995L16.681 36.186L12.5323 46.1321L23.2857 44.9576L24.1344 46.0846L10.3554 47.7713Z" fill="#0029FF"/>
  <path d="M21.8889 26.6598L30.9455 22.973L40.0021 26.6598V38.5214L30.9455 47.017L21.8889 38.5214V26.6598Z" fill="url(#paint2_linear_37_4301)"/>
  <defs>
    <radialGradient id="paint0_radial_37_4301" cx="0" cy="0" r="1" gradientUnits="userSpaceOnUse" gradientTransform="translate(12.4095 10.6993) rotate(54.1821) scale(31.9332)">
      <stop stop-color="#F5F5F5"/>
      <stop offset="1" stop-opacity="0"/>
    </radialGradient>
    <radialGradient id="paint1_radial_37_4301" cx="0" cy="0" r="1" gradientUnits="userSpaceOnUse" gradientTransform="translate(12.4092 10.6992) rotate(54.1821) scale(31.9332)">
      <stop stop-color="#F5F5F5"/>
      <stop offset="1" stop-opacity="0"/>
    </radialGradient>
    <linearGradient id="paint2_linear_37_4301" x1="23.011" y1="26.8201" x2="33.2698" y2="47.017" gradientUnits="userSpaceOnUse">
      <stop stop-color="#E20CF4"/>
      <stop offset="0.433235" stop-color="#FFE603"/>
      <stop offset="0.433335" stop-color="#0029FF"/>
    </linearGradient>
  </defs>
</svg>